<?xml version="1.0" encoding="UTF-8"?>
<svg version="1.1" viewBox="0 0 1600 1200" xmlns="http://www.w3.org/2000/svg" xmlnsXlink="http://www.w3.org/1999/xlink">
<rect width="1600" height="1200" fill="#f3ebe9"/>
<path d="m972.53 1014.6h-24.19v-264.07c0-29.1-26.42-52.81-58.83-52.81h-409.71c-32.42 0-58.83 23.71-58.83 52.81v264.07h-24.2v-264.07c0-39.9 37.26-72.37 83.03-72.37h409.71c45.77 0 83.02 32.47 83.02 72.37v264.07z" fill="#3b2c59" stroke-width="4"/>
<g stroke-width="4">
<path d="m787.72 678.11h-105.26l-6.75-38.21-6.76-38.46h105.26l2.47 13.9 11.04 62.77z" fill="#d67b43"/>
<path d="m675.71 639.9-6.76-38.46h105.26l2.47 13.9-100.97 24.56z" fill="#5e2705" opacity=".2"/>
<path d="m859.58 608.71h-273.41c-18.19 0-35.47-14.68-38.72-32.87l-33.14-187.65c-3.25-18.19 8.97-32.87 27.03-32.87h273.54c18.19 0 35.48 14.68 38.72 32.87l33.01 187.78c3.25 18.06-8.84 32.74-27.03 32.74z" fill="#d67b43"/>
<path d="m845.42 588.96h-252.1c-11.7 0-22.74-9.48-24.82-21.05l-30.28-171.53c-2.08-11.69 5.72-21.05 17.42-21.05h252.09c11.7 0 22.74 9.49 24.82 21.05l30.28 171.53c1.95 11.57-5.85 21.05-17.41 21.05z" fill="#fff"/>
<path d="M775.51 608.71H670.25" fill="none" stroke="#5e2705" stroke-linecap="round" stroke-linejoin="round"/>
</g>
<g stroke-width="4">
<path d="m723.02 480.72c7.62-30.64 6.78-57.23-1.87-59.38-8.65-2.14-21.84 20.96-29.45 51.6s-6.77 57.22 1.88 59.37 21.83-20.95 29.44-51.59z" fill="none" stroke="#ff001e" stroke-linecap="round" stroke-linejoin="round"/>
<path d="m748.28 516.44c6.18-6.41-7.23-29.38-29.96-51.29s-46.17-34.47-52.35-28.06c-6.19 6.42 7.23 29.38 29.96 51.3 22.73 21.91 46.16 34.47 52.35 28.05z" fill="none" stroke="#ff001e" stroke-linecap="round" stroke-linejoin="round"/>
<path d="m711.82 492.31c30.34-8.73 52.94-22.74 50.48-31.31-2.47-8.57-29.06-8.43-59.41 0.3-30.33 8.73-52.93 22.75-50.47 31.31 2.46 8.57 29.06 8.43 59.4-0.3z" fill="none" stroke="#ff001e" stroke-linecap="round" stroke-linejoin="round"/>
<path d="m707.36 485.8c4.96 0 8.99-4.02 8.99-8.99 0-4.96-4.03-8.98-8.99-8.98s-8.99 4.02-8.99 8.98c0 4.97 4.03 8.99 8.99 8.99z" fill="#3b2c59"/>
<path d="m669.96 461.02c2.58 0 4.67-2.09 4.67-4.67 0-2.57-2.09-4.66-4.67-4.66-2.57 0-4.66 2.09-4.66 4.66 0 2.58 2.09 4.67 4.66 4.67z" fill="#3b2c59"/>
<path d="m751.11 480.33c2.57 0 4.66-2.09 4.66-4.67 0-2.57-2.09-4.66-4.66-4.66-2.58 0-4.67 2.09-4.67 4.66 0 2.58 2.09 4.67 4.67 4.67z" fill="#3b2c59"/>
<path d="m686.48 520.9c2.58 0 4.67-2.09 4.67-4.66 0-2.58-2.09-4.67-4.67-4.67s-4.66 2.09-4.66 4.67c0 2.57 2.08 4.66 4.66 4.66z" fill="#3b2c59"/>
</g>
<g stroke-width="4">
<path d="m856.74 997.02c1.89-10.78 3.89-22.66 4.78-33.88h-55.22c0.51-2.79 2.01-11.78 1.9-13.33 0-6.89-5.55-12.44-12.44-12.44l-18.22-1.12c-1.22 3.56-2.55 7-4.66 10.22-9.11 13.56-17.78 19.89-26.22 25.89-5.89 4.22-11.55 8.33-16.55 14.55-2.22 2.89-4 5.33-5.44 8.66 0 0 0.11 0.67 1 0.67 14.11 0.11 131.07 0.78 131.07 0.78z" fill="#3b2c59"/>
<path d="m853.08 1014.1c1.33-5.77 2.66-11.77 3.77-17.99v-0.22l-132.18-0.34-0.45 0.78c-4.11 9-3.11 16.33-2.88 17.77 0 0.22 0.22 0 0.33 0h131.41z"/>
<path d="m759.88 682.55c8.78 0 24.77-9 28.33-11-2.11 3.44-3.45 10.22 3.55 9.89 17.33-1.23 58.1-25.89 59.1-26.11 0.22 0.11-16.78-42.99-17.11-42.21-5.11 2.78-11.55 1.11-18.33 0.45-20.88 8.88-43.1 24.1-57.09 35.65-8.34 7.11-11.22 12-9.11 15.89-2 3.11-2.56 5.77-1.67 7.99 1.33 3.23 5.33 4.34 6.22 4.56 0.22 3.33 2.33 4.89 6.11 4.89z" fill="#e59763"/>
<path d="m861.52 963.58c1.55-16.99 2.22-34.32 1.78-51.43 0 0.33-84.54-5.89-83.87-4.89 1.89 10.22 1.11 20.77-2.44 30.55h18.66c4 0 7.66 2 9.88 5.33 1.78 2.67 2.83 4.6-0.21 20.07l1.37 0.02h54.83z" fill="#e59763"/>
<path d="m861.52 963.58v-0.22c1.55-16.89-25.88-58.43-25.88-58.43l-39.1 0.67 34.65 58.2 30.33-0.22z" fill="#030202" opacity=".2"/>
<path d="m765.1 956.69 13.66 6.78" fill="none" stroke="#000" stroke-linecap="round" stroke-linejoin="round"/>
<path d="m931.39 963.58c1.67-16.99 2.33-34.32 1.89-51.43 0 0.22-104.75-5.66-104.31-5 2 11.22 4.45 24.77 4.45 30.55h21.88c4 0 7.66 2 9.89 5.33 1.77 2.67 2.44 5.89 1.88 9l-2.22 11.44c2.78 0.89 64.87 1.33 66.54 0.11z" fill="#e59763"/>
<path d="m1022.7 455.28c0.78-16.78 1.78-41.55 2.44-57.99 0-1.11-0.44-2.22-1.22-3-10.55-9.66-13-35.1-14.77-51.1-0.23-2.44-2.78-3.99-5.11-3.11-9.56 3.67-17.33 3.89-27.77 3.89-10.78 0-23.33-6-32.33-1.11-17.55 9.44-18.55 17.89-23.21 41.1-0.23 1.33-1.34 2.56-2.67 2.89-9.78 3-7.66 7.55-2.33 13.77 0.77 1.11 1 2 0.66 3.67-4.88 26.99 0.89 42.1 25 42.99 4.22 0 8.55-0.67 11.88-2 0.34-0.11 0.45 0.11 0.45 0.33s0.11 8.55 0.11 9.22c2.55 2.78 64.42 4.22 68.87 0.45z" fill="#e59763"/>
<path d="m926.72 996.13c1.89-10.67 3.56-21.11 4.56-32.22 0-0.22-0.11-0.33-0.33-0.33l-65.21-0.44c-0.22 0-0.33-0.23-0.33-0.34 0.44-2.44 2.44-11.55 2.22-12.99 0-6.89-5.56-12.44-12.44-12.44h-21.66c-0.22 0-0.34 0.11-0.34 0.33 0 18.55-13.1 27.55-26.1 35.99-9.66 6.22-17.33 12-21.88 21.77-0.11 0.22 0 0.45 0.22 0.45 5.89 0.77 68.65 9.77 70.42 9.99h0.12c1.88-0.22 65.87-8.77 70.31-9.55 0.33 0 0.44-0.11 0.44-0.22z" fill="#3b2c59"/>
<path d="m933.06 939.25c0.33-8.77 0.44-17.88 0.22-26.88v-0.22l-82.87-9.33-0.33 7.78 82.98 28.88v-0.23z" fill="#030202" opacity=".2"/>
<path d="m759.33 912.59c0-0.66 3.44-66.31 7.88-105.86 4.45-39.54 14-71.09 46.21-96.3 60.98-42.66 113.19-43.44 161.07-53.99 0 0 94.31-3.44 94.31-3.22 23.21 49.65 30.88 122.19-48.99 135.3h-105.75c1.44 4.33 17.77 56.09 19.22 124.19-20.11 0.77-152.74 0.22-173.95-0.12z" fill="#7e7e7c"/>
<path d="m811.09 912.82h2.78-21.55c0.11-0.34 9.88-26.11 3.33-97.42-2.56-29.66 4-63.87 25.55-75.98-10.33 20.33-10.78 43.65-11.22 63.54-1.11 52.32 1.11 109.3 1.11 109.86z" opacity=".2"/>
<path d="m920.06 761.41c-12.11-10.33-17.66-9.55-19.11-8.77-0.22 0.11-0.33 0.44-0.22 0.66 7.67 18.67 13.22 34.88 13.33 35.22h55.54s-39.32-18.89-49.54-27.11z" opacity=".2"/>
<path d="m811.31 912.48s-2.22-56.98-1.11-109.86c0.56-26.99 1.11-60.76 26.99-84.42 9.89-8.99 22.66-17.21 36.44-24.43" fill="none" stroke="#000" stroke-linecap="round" stroke-linejoin="round"/>
<path d="m934.06 408.84c-1.34 3.67-6.45 4.89-9.22 4.34" fill="none" stroke="#030202" stroke-linecap="round" stroke-linejoin="round"/>
<path d="m932.83 391.96c-1.6 0-2.88-1.29-2.88-2.89s1.28-2.89 2.88-2.89c1.59 0 2.89 1.29 2.89 2.89s-1.3 2.89-2.89 2.89z" fill="#010005"/>
<path d="m970.16 438.72s-10 3.89-16.89 6.56" fill="none" stroke="#030202" stroke-linecap="round" stroke-linejoin="round"/>
<path d="m914.06 788.3c-3.78-11.78-13.33-35-13.33-35" fill="none" stroke="#000" stroke-linecap="round" stroke-linejoin="round"/>
<path d="m945.61 682.44c34.32 0.55 59.43-7.23 78.2-23.44 0.11 0 0.11-0.11 0.22-0.11 2.33 0 42.99-0.11 46.99-0.11 0.22 0 0.33-0.12 0.33-0.34v-19.77c0-0.11 0.11-0.22 0.11-0.22 19.89-12.11 12.44-35.66 7.44-50.99-2.11-6.44-3.66-11.44-2.99-14.22 16.21-68.98-5.78-100.19-52.99-106.86-0.11 0-0.22-0.11-0.22-0.33v-11c0-0.22-0.11-0.33-0.34-0.33h-68.2c-0.22 0-0.33 0.11-0.33 0.33v10.78c0 0.11-0.11 0.22-0.22 0.33-7.34 2.11-14.33 5.11-20.89 8.89-17.44 9.99-28.88 25.43-40.65 55.2-14.55 36.88-20.55 51.1-21.33 52.66 0 0.11-0.11 0.11-0.11 0.11-2.45 1.33-33.44 18.55-54.99 30.21-0.11 0.11-0.22 0.22-0.11 0.45l25.77 49.43c0.11 0.11 0.23 0.22 0.34 0.22l36.65-2.22c0.22 0 0.34 0.11 0.34 0.22 0.22 1.89 0.77 12.44 1.11 14 0 0.11 0.11 0.22 0.22 0.22 2.44 0.66 32.99 6.89 65.65 6.89z" fill="#ff001e"/>
<path d="m1071.4 658.78v-20c0-0.11 0.11-0.22 0.11-0.22 19.77-11.67 12.33-35.66 7.44-50.99-1.77-5.22-2.99-9.22-3.11-12.11 0-0.33-0.44-0.44-0.55-0.11-19.66 55.1-51.21 83.65-51.21 83.65l47.32-0.22z" fill="#802f39" opacity=".2"/>
<path d="m798.65 710.54c11.22 0 23.32-16.77 27.32-22.88-3.66 14.88 3.56 31.32 13.78 8.22 12.33-26.66 19.99-22.22 46.65-18.67l4.67 0.56-1.67-65.65c-15.99 0-40.1 3.89-51.43 6.55-22.44 6-55.65 17.44-53.98 28 1.22 4.11 10.43 6.24 10.1 6.33-6.88 7.44-15.33 21.88-18.55 27.32-5.77 8.78-6 17.78 3 18.89-0.11 4.22 0.67 7.22 2.33 9 2.56 3.33 9.56 1.33 11.34 0.11 1.88 1.44 4.11 2.22 6.44 2.22z" fill="#e59763"/>
<path d="m778.65 699.1c14.22-24.77 33.77-44.99 33.77-44.99" fill="none" stroke="#030202" stroke-linecap="round" stroke-linejoin="round"/>
<path d="m792.21 708.09c15.21-23.54 32.65-44.98 32.65-44.98" fill="none" stroke="#030202" stroke-linecap="round" stroke-linejoin="round"/>
<path d="m825.97 687.66 9.22-16.22" fill="none" stroke="#030202" stroke-linecap="round" stroke-linejoin="round"/>
<path d="m1022.4 442.06c0.45 0 0.89 0.33 0.89 0.33l1.89-46.65c1-15.33 1.33-44.55-16.22-57.43-0.11-0.11-0.33-0.11-0.44 0-8.66 7.99-20.22 5.77-32.1 5.77-10.78 0-19-6.66-28-1.77-8.99 4.99-17.21 5.66-20.88 16.1v0.34c1.11 1.33 9.55 11.77 27.44 12.1 0.22 0 0.33 0.11 0.33 0.34-0.78 17.99 7.56 25.43 9 26.66 0.11 0.11 0.33 0.11 0.44 0 3.82-1.94 19.55-19.33 34.44-3.34 13.33 14.22-6.56 34.44-9 36.88-0.11 0.11-0.11 0.34 0 0.45 12 9.44 28.88 10.33 32.21 10.22z" fill="#010005"/>
<path d="m984.6 411.06-8.22 6.56" fill="none" stroke="#030202" stroke-linecap="round" stroke-linejoin="round"/>
<path d="m820.53 963.69 13.66 6.78" fill="none" stroke="#000" stroke-linecap="round" stroke-linejoin="round"/>
<path d="m1075.7 573.02c-5.66 21.33-28.1 64.09-51.76 85.53" fill="none" stroke="#802f39" stroke-linecap="round" stroke-linejoin="round"/>
<path d="m1071.2 638.34h-28.1" fill="none" stroke="#802f39" stroke-linecap="round" stroke-linejoin="round"/>
<path d="m1055.5 658.55v-20.21" fill="none" stroke="#802f39" stroke-linecap="round" stroke-linejoin="round"/>
<path d="m889.4 612.12c25.77-1 77.87-3.33 77.87-3.33" fill="none" stroke="#802f39" stroke-linecap="round" stroke-linejoin="round"/>
<path d="m967.27 608.79 25.88-58.43" fill="none" stroke="#802f39" stroke-linecap="round" stroke-linejoin="round"/>
<path d="m922.28 610.45-3.33-30.1" fill="none" stroke="#802f39" stroke-linecap="round" stroke-linejoin="round"/>
<path d="m1022.7 466.38s5.89 0.56 12.22 2.45" fill="none" stroke="#802f39" stroke-linecap="round" stroke-linejoin="round"/>
<path d="m1025.5 395.4c0-0.89-0.11-2.77-0.11-3.44 0-0.11-0.11-0.22-0.22-0.22-2.22-0.89-18.99-8.89-21.1-9.89-0.11-0.11-0.23-0.22-0.23-0.33 1.23-6.67 6-23.11 17.44-23 0.45-0.11 0.67-0.44 0.56-0.88l-1.33-3.89c-4.11-9-5.89-11.67-11.89-15.89-8.89-6.11-20.33-9.44-32.32-9.44-24.89 0-46.44 12.66-51.66 37.44 0 0.11 0 0.33 0.11 0.33 3.34 1.78 47.66 25.66 47.66 25.66 0.33 0.11 0.66 0.22 0.89 0 3.44-1.67 7.44-3 11.33-2.89 8.88-0.33 15.1 3.33 18.66 13.77l20.44 10c0.33 0.22 0.78 0 0.78-0.44 0.33-2.78 0.88-12.78 0.99-16.89z" fill="#3b2c59"/>
<path d="m970.16 438.72c-5.45 2.56-10.56 5.11-16.22 6.89-0.11 0-0.22 0.11-0.22 0.33 0 1 0.11 5.23 0.11 9v5.11c0 0.33 0.33 0.45 0.55 0.22l16.22-20.88c0.22-0.44-0.11-0.78-0.44-0.67z" fill="#030202" opacity=".2"/>
<path d="m967.27 608.79 25.66-57.99c0.11-0.22-0.11-0.44-0.34-0.44-2.11 0.11-11.21 2.22-24.54 24.44-6 10-12.89 18.44-21.22 18.99-8.89 0.56-15.33-4.88-20.33-9.88-2.89-2.78-6.22-3.45-7.33-3.56-0.22 0-0.33 0.11-0.33 0.34l3.44 30.32 44.99-2.22z" fill="#802f39" opacity=".2"/>
<path d="m971.05 391.07-63.99-34.32" fill="none" stroke="#3b2c59" stroke-linecap="round" stroke-linejoin="round"/>
<path d="m922.95 1014.1c1.22-5.55 2.55-11.44 3.66-17.33 0-0.22-0.11-0.33-0.33-0.33l-140.96-0.44c-0.11 0-0.22 0.11-0.34 0.22-3.99 9-3.11 16.55-2.99 17.99 0 0.11 0.11 0 0.33 0h140.18c0.34-0.11 0.45 0 0.45-0.11z"/>
<path d="m789.09 637.67c-3.33 2.55-5.44 5.44-5.33 8.33 0.34 6 10.22 7 10.22 7s-10.44 12.44-16.66 24.1" fill="none" stroke="#030202" stroke-linecap="round" stroke-linejoin="round"/>
<path d="m749.22 665.11 19.1-8.67" fill="none" stroke="#030202" stroke-linecap="round" stroke-linejoin="round"/>
<path d="m754.22 677.1 18.99-8.55" fill="none" stroke="#030202" stroke-linecap="round" stroke-linejoin="round"/>
</g>
<g stroke-width="4">
<path d="M953.55 926.93V907.9H1092.4V926.93H953.55Z" fill="#fd3f6f"/>
<path d="m953.55 926.93v-19.03h21.59l-9.12 19.03h-12.47z" fill="#6a1d31" opacity=".2"/>
<path d="m1079.9 926.93-9.11-19.03h21.59v19.03h-12.48z" fill="#6a1d31" opacity=".2"/>
<path d="m926.3 1006.4c-0.1 0.38-0.1 0.85-0.1 1.23 0 4.09 3.36 7.42 7.49 7.42 3.45 0 6.62-2.47 7.29-5.8l46.54-212.58h-25.72l-35.5 209.73z" fill="#fd3f6f"/>
<path d="m1084 796.62h-25.72l46.64 212.58c0.76 3.42 3.83 5.8 7.29 5.8 0.38 0 0.77 0 1.15-0.09 2.02-0.29 3.74-1.33 4.89-2.95 1.16-1.62 1.63-3.62 1.35-5.52l-35.6-209.82z" fill="#fd3f6f"/>
<path d="m963.24 907.9-4.12 19.03" fill="none" stroke="#84223b" stroke-linecap="round" stroke-linejoin="round"/>
<path d="m1082.5 907.9 4.13 19.03" fill="none" stroke="#84223b" stroke-linecap="round" stroke-linejoin="round"/>
<path d="m961.9 796.62-7.1 41.66h23.7l9.11-41.66h-25.71z" fill="#6a1d31" opacity=".2"/>
<path d="m1084 796.62h-25.72l9.12 41.66h23.7l-7.1-41.66z" fill="#6a1d31" opacity=".2"/>
<path d="m943.09 810.98h159.86c6.24 0 11.23-4.94 11.23-11.13 0-6.18-4.99-11.12-11.23-11.12h-159.86c-6.24 0-11.23 4.94-11.23 11.12 0 6.19 4.99 11.13 11.23 11.13z" fill="#3b2c59"/>
<path d="m959.4 810.98h25.05" fill="none" stroke="#3b2c59" stroke-linecap="round" stroke-linejoin="round"/>
<path d="m1061.5 810.98h25.04" fill="none" stroke="#3b2c59" stroke-linecap="round" stroke-linejoin="round"/>
</g>
<g stroke-width="4">
<path d="m520.39 678.22v-78.49h69.26v78.49h-69.26z" fill="#ff001e"/>
<path d="m555.02 620.04c-22.81 0-33.25-17.78-34.5-20.07-0.01-0.03-0.01-0.06-0.01-0.09 0-0.02 0-0.05 0.01-0.07 0.02-0.03 0.04-0.05 0.07-0.06 0.02-0.01 0.04-0.02 0.08-0.02h68.32c0.06 0 0.14 0.02 0.19 0.05 0.07 0.03 0.11 0.09 0.15 0.14 0.04 0.06 0.05 0.13 0.05 0.19 0 0.08-0.01 0.14-0.05 0.21-1.9 3.33-12.4 19.72-34.31 19.72z"/>
<path d="m604.24 644.05c7.14 0 12.93-5.79 12.93-12.93 0-7.13-5.79-12.92-12.93-12.92s-12.93 5.79-12.93 12.92c0 7.14 5.79 12.93 12.93 12.93z" fill="none" stroke="#000" stroke-linecap="round" stroke-linejoin="round"/>
</g>
<g stroke-width="4">
<path d="m335.31 860.49c-4.58-17.06-29.54-22.16-39.81 10.78-8.94 28.74-21.57 32.95-27.33 61.38-5.46 27.18 10.27 66.47 50.59 63.67 42.47-2.96 16.55-135.83 16.55-135.83z" fill="none" stroke="#fff" stroke-linecap="round" stroke-linejoin="round"/>
<path d="m352.36 787.74 54.55 102.33-95.16 50.73-54.55-102.33 95.16-50.73z" fill="#7e7e7c"/>
<path d="m378.96 801.33h-0.3c-16.39 0-29.69 13.3-29.69 29.69v27.7h59.68v-27.7c0-16.39-13.29-29.69-29.69-29.69z" fill="none" stroke="#fff" stroke-linecap="round" stroke-linejoin="round"/>
<path d="m378.89 829.18h-0.67c-42.54 0-76.96 34.49-76.96 76.96v91.66c0 9.82 7.98 17.8 17.8 17.8h118.99c9.82 0 17.8-7.98 17.8-17.8v-91.58c0.07-42.55-34.42-77.04-76.96-77.04 0 0 0.07 0 0 0z" fill="#d67b43"/>
<path d="m409.39 923.72h-61.53c-9.97 0-18.09 8.13-18.09 18.1v38.77c0 9.97 8.12 18.1 18.09 18.1h61.53c9.97 0 18.09-8.13 18.09-18.1v-38.77c0-9.97-8.12-18.1-18.09-18.1z" fill="#5f4a3d" opacity=".3"/>
<path d="m409.14 927.83h-61.28c-8.48-0.5-10.47 4.92-18.13 16v28.64c0.04 9.97 8.16 18.09 18.13 18.09h61.53c9.97 0 18.09-8.12 18.09-18.09v-28.98c-5.89-14.09-8.73-15.17-18.34-16.16z" fill="#6e6e33"/>
<path d="m409.39 915.6h-61.53c-9.97 0-18.09 8.12-18.09 18.09v9.75h97.71v-9.75c0-9.97-8.12-18.09-18.09-18.09z" fill="#7e7e7c" stroke="#272459"/>
<path d="M427.48 943.44H329.7" fill="none" stroke="#fcfcfc" stroke-linecap="round" stroke-linejoin="round"/>
<path d="m378.59 892.26c-8.16 0-14.77-6.62-14.77-14.77 0-8.17 6.61-14.78 14.77-14.78 8.15 0 14.77 6.61 14.77 14.78 0 8.15-6.62 14.77-14.77 14.77z" fill="#7e7e7c"/>
</g>
<g stroke-width="4">
<path d="m1341.7 1015.9 0.02-1.79c0-30.81 0-59.91-37.93-96.61-1.27-1.23-2.49-2.39-3.67-3.5-0.95-0.91-1.87-1.78-2.76-2.63-17.99-17.07-25.43-24.14-38.3-67.18l-0.23-0.84-0.14-0.46c-11.41-37.95-16.13-53.66-40.63-58.32-1.62-0.33-3.23-0.38-4.45-0.38-9.2 0-17.83 5.09-22.15 8.13-2.74 1.9-6 2.9-9.41 2.9-1.63 0-3.32-0.23-4.9-0.69l-22.68-6.66c-0.7-0.21-1.39-0.31-2.22-0.31-3.53 0-6.69 2.4-7.69 5.84-0.14 0.51-0.22 0.95-0.3 1.54-0.61 7.23 0.14 17.54 7.2 25.6 4.57 5.18 9.75 8.54 14.32 11.51l0.09 0.06c5.8 3.79 10.33 6.75 10.33 11.4v153.52l-3.04-0.02c-7.28 0-13.2 5.92-13.2 13.2v5.69h181.74z" fill="#d67b43"/>
<path d="m1267.2 868.33-0.11-0.26c-2.07-5.36-4.15-11.55-6.74-20.07l-0.02-0.07-84.11-0.02-0.02 20.42h91z" fill="#7e7e7c"/>
<path d="m1228.8 892.31c10.74 0 19.48-8.74 19.48-19.48v-61.59c-6.9-17.18-15.73-24.14-30.28-26.68-1.25-0.22-2.66-0.39-4.45-0.39-1.55 0-2.69 0.04-3.93 0.24l-0.36 0.07-0.02 88.35c0.08 10.74 8.85 19.48 19.56 19.48z" fill="#864e2b"/>
<path d="m1176.6 905.39c4.9 0 9.27-2.91 11.18-7.51 1.23-2.99 1.23-6.28 0-9.27-1.22-2.99-3.6-5.29-6.59-6.59-1.45-0.61-3.06-0.92-4.59-0.92-4.91 0-9.27 2.91-11.19 7.51-1.22 2.99-1.22 6.28 0 9.27 1.23 2.99 3.6 5.29 6.59 6.59 1.46 0.61 2.99 0.92 4.6 0.92z" fill="#3b2c59"/>
<path d="m1192.9 808.79c-1.99 0-3.6-1.62-3.6-3.61 0-1.98 1.61-3.6 3.6-3.6s3.6 1.62 3.6 3.6c0 1.99-1.61 3.61-3.6 3.61z" fill="#5a3a35"/>
<path d="m1149.6 800.33c5.8 0 10.52-4.75 10.52-10.59v-0.23l-5.69-1.71c-0.45-0.15-0.99-0.23-1.52-0.3l-0.63-0.01c-4.29 0-7.76 3.18-8.06 7.38-0.08 1.2-0.16 2.45-0.16 3.83v0.12l0.09 0.05c1.55 0.93 3.53 1.46 5.45 1.46z" fill="#864e2b"/>
<path d="m1210.3 1015.9 0.03-5.69c0-7.09 5.76-12.85 12.84-12.85h3.38l0.02-0.18s-0.01-0.05-0.01-0.13c-0.34-5.26-1.28-32.53 13.1-52.48l0.31-0.38-0.48 0.11-0.09 0.04c-3.46 1.46-33.87 15.41-33.94 52.84-0.14 0.02-3.81 0.86-7.33 3.86-4.19 3.56-6.31 8.5-6.31 14.68v0.18h18.48z" fill="#36281f" opacity=".15"/>
<path d="m1269.7 924.54c-48.65 11.57-43.29 72.62-43.29 72.62h-3.22c-7.2 0-13.02 5.83-13.02 13.03v4.75" fill="none" stroke="#864e2b" stroke-linecap="round" stroke-linejoin="round"/>
</g>
</svg>