<svg viewBox="0 0 800 800" opacity="0.79"><defs><linearGradient x1="50%" y1="0%" x2="50%" y2="100%" id="wwwhirl-grad"><stop stop-color="hsla(0, 75%, 49%, 1.00)" stop-opacity="1" offset="45%"></stop><stop stop-color="hsla(331, 3%, 67%, 1.00)" stop-opacity="1" offset="100%"></stop></linearGradient></defs><g stroke-width="2" stroke="url(#wwwhirl-grad)" fill="none" stroke-linecap="round"><path d="M23.750002609599804 401.44859324661616C38.00189694438764 389.4770020053943 63.65530674700578 320.25555122132977 92.15909541658147 343.9849552887515C120.66288408615713 367.7143593561733 132.06439955398744 521.5493068058734 160.56818822356314 515.3497327702406C189.0719768931388 509.1501587346079 200.47349236096912 322.13680127352177 228.97728103054482 314.2269999177145C257.48106970012054 306.3171985619073 268.8825851679508 477.168907847344 297.3863738375265 477.38268626236584C325.89016250710216 477.5964646773876 337.29167797493244 322.9491592506047 365.7954666445081 315.25313630981924C394.2992553140838 307.5571133690338 405.7007707819142 439.1591056564648 434.20455945148984 440.44177614659566C462.70834812106546 441.7244466367266 474.1098635888958 323.9752956427094 502.6136522584716 321.4099546624476C531.117440928047 318.84461368218575 542.5189563958774 435.8241623821244 571.0227450654531 428.128139441339C599.5265337350289 420.43211650055355 610.9280492028591 284.89660137672115 639.4318378724349 284.4690445466775C667.9356265420106 284.0414877166338 679.3371420098408 410.6838207755587 707.8409306794165 426.07586665712955C736.344719348992 441.46791253870043 761.9981291516103 372.46024016965765 776.2500234863982 358.35086477821767 " transform="rotate(105, 400, 400)"></path><path d="M34.5000025350398 401.40723865546005C48.344699888833716 389.7776928782731 73.26515512566276 322.5339978308961 100.95454983325055 345.585418924963C128.6439445408384 368.6368400190298 139.7197024238735 518.0765032558813 167.40909713146132 512.0540599069809C195.09849183904913 506.0316165580806 206.17424972208428 324.3614978815969 233.8636444296721 316.67769085024133C261.55303913725993 308.9938838188857 272.6287970202951 474.96411569616714 300.3181917278829 475.171786156474C328.0075864354707 475.3794566167809 339.0833443185058 325.15064563076317 366.77273902609363 317.67450905971447C394.4621337336814 310.19837248866577 405.5378916167166 438.04030785359873 433.22728632430443 439.2863306154402C460.91668103189215 440.53235337728165 471.99243891492733 326.14746384023636 499.6818336225151 323.65541831655344C527.3712283301029 321.1633727928705 538.446986213138 434.80064867281095 566.1363809207259 427.32451210176225C593.8257756283137 419.8483755307135 604.9015335113489 288.1853036961335 632.5909282189367 287.7699627755196C660.2803229265246 287.3546218549058 671.3560808095597 410.3786025407185 699.0454755171475 425.3308756828159C726.7348702247352 440.2831488249134 751.6553254615643 373.2471242378432 765.5000228153582 359.54087385758726 " transform="rotate(102, 400, 400)"></path><path d="M45.250002460479806 401.3658230291477C58.68750283327978 390.0783227159957 82.87500350431974 324.81238340530626 109.75000424991967 347.1858215260182C136.6250049955196 369.55925964673014 147.37500529375959 514.6036386707331 174.25000603935953 508.75832600856506C201.12500678495945 502.91301334639707 211.87500708319948 326.58613345451585 238.75000782879937 319.12832074761184C265.6250085743993 311.6705080407079 276.37500887263934 472.7592625098339 303.2500096182393 472.96082501542594C330.1250103638392 473.1623875210179 340.87501066207915 327.3520709757654 367.7500114076791 320.09582077445344C394.62501215327904 312.8395705731415 405.375012451519 436.9214490155764 432.25001319711896 438.13082404912836C459.12501394271885 439.34019908268044 469.8750142409589 328.319571002607 496.7500149865589 325.900820935503C523.6250157321588 323.48207086839903 534.3750160303987 433.7770739283412 561.2500167759987 426.5208237270292C588.1250175215987 419.2645735257172 598.8750178198386 291.4739449803895 625.7500185654386 291.0708199692055C652.6250193110386 290.6676949580215 663.3750196092785 410.073323270722 690.2500203548784 424.585823673346C717.1250211004783 439.09832407596997 741.3125217715183 374.03394727087255 754.7500221443182 360.73082190180054 " transform="rotate(99, 400, 400)"></path><path d="M56.000002385919814 401.3244302910189C69.03030577772584 390.37897544190184 92.48485188297671 327.09079186789995 118.54545866658879 348.786247015257C144.60606545020084 370.48170216261406 155.03030816364566 511.1307969737683 181.09091494725772 505.4626149983327C207.15152173086977 499.7944330228971 217.57576444431464 328.8107919156183 243.6363712279267 321.578973533166C269.6969780115387 314.34715515071366 280.1212207249836 470.55443221168434 306.1818275085957 470.74988676256146C332.2424342922077 470.9453413134385 342.66667700565256 329.5535192089513 368.72728378926456 322.517155377376C394.7878905728766 315.4807915458008 405.2121332863215 435.80261306573766 431.27274006993355 436.97534037100024C457.33334685354566 438.14806767626277 467.7575895669905 330.4917010531613 493.81819635060253 328.1462464426362C519.8788031342145 325.80079183211114 530.3030458476594 432.75352207205503 556.3636526312714 425.71715824047976C582.4242594148835 418.68079440890455 592.8485021283283 294.76260915282916 618.9091089119405 294.371700051075C644.9697156955526 293.9807909493208 655.3939584089974 409.76806688890923 681.4545651926094 423.8407945520597C707.5151719762214 437.91352221521026 730.9697180814723 374.82079319208543 744.0000214732783 361.92079283419747 " transform="rotate(96, 400, 400)"></path><path d="M66.75000231135982 401.2830451822847C79.3731087221719 390.67963579720254 102.09470026163369 329.3692079598882 127.34091308325787 350.3866801338903C152.58712590488204 371.40415230789245 162.68561103353173 507.6579629061982 187.93182385515593 502.166911617495C213.1780366767801 496.6758603287917 223.2765218054298 331.0354580061154 248.52273462705398 324.0296339481147C273.76894744867815 317.02380989011397 283.86743257732786 468.34960954292933 309.11364539895203 468.5389561390915C334.35985822057626 468.7283027352537 344.4583433492259 331.75497507153165 369.7045561708501 324.9384976096931C394.95076899247425 318.1220201478546 405.04925412112397 434.68378474529345 430.29546694274813 435.81986432226654C455.5416797643723 436.9559438992396 465.640164893022 332.66383873311014 490.8863777146462 330.39167957916396C516.1325905362703 328.1195204252178 526.2310756649199 431.7299778451635 551.4772884865442 424.9135003833249C576.7235013081685 418.0970229214864 586.8219864368181 298.05128095466335 612.0681992584423 297.672587762339C637.3144120800665 297.29389457001463 647.4128972087162 409.4628181364909 672.6591100303403 423.09577306016797C697.9053228519645 436.72872798384503 720.6269143914262 375.60764674269285 733.2500208022384 363.1107713959889 " transform="rotate(93, 400, 400)"></path><path d="M77.50000223679983 401.24164481476134C89.71591166661798 390.9802808937141 111.70454864029067 331.64760879308733 136.13636749992696 351.98709799373455C160.5681863595633 372.32658719438183 170.3409139034178 504.185113579839 194.7727327630541 498.8711929778681C219.20455162269042 493.5572723758972 228.97727916654495 333.26010883782334 253.40909802618128 326.48027910427425C277.8409168858176 319.7004493707252 287.61364442967215 466.14477161538525 312.04546328930843 466.3280102568325C336.4772821489447 466.51124889827975 346.25000969279927 333.956415675323 370.68182855243555 327.35982458322115C395.1136474120718 320.76323349111937 404.8863749559264 433.56494116606024 429.31819381556267 434.6643730147439C453.750012675199 435.7638048634275 463.52274021905356 334.83596115426985 487.95455907868984 332.6370974569026C512.3863779383261 330.43823375953536 522.1591054821806 430.70641835948277 546.590924341817 424.109827267381C571.0227432014533 417.5132361752792 580.7954707453079 301.3399374977085 605.2272896049442 300.97346021481394C629.6591084645805 300.6069829319194 639.431836008435 409.1575541252835 663.8636548680713 422.35073630948716C688.2954737277075 435.54391849369074 710.2841107013802 376.39448503451126 722.5000201311984 364.3007346989913 " transform="rotate(90, 400, 400)"></path><path d="M88.25000216223984 401.20025970602717C100.05871461106405 391.2809412490148 121.31439701894764 333.92602488507555 144.93182191659608 353.5875311123679C168.5492468142445 373.2490373396602 177.9962167733039 500.7122795122688 201.6136416709523 495.5754895970303C225.23106656860074 490.4386996817917 234.67803652766014 335.48477492832035 258.29546142530853 328.93093951922293C281.912886322957 322.3771041101255 291.3598562820164 463.93994894663024 314.9772811796648 464.11707963336255C338.5947060773133 464.29421032009486 348.0416760363726 336.15787153790336 371.659100934021 329.78116681553826C395.27652583166946 323.4044620931732 404.72349579072886 432.446112845616 428.3409206883773 433.5088969660102C451.9583455860257 434.5716810864044 461.4053155450851 337.0080988342187 485.02274044273355 334.8825305934303C508.6401653403819 332.75696235264195 518.0871352994412 429.68287413259117 541.7045601970897 423.30616941022606C565.3219850947382 416.929464687861 574.7689550537975 304.6286092995427 598.3863799514461 304.27434792607795C622.0038048490945 303.92008655261327 631.4507748081538 408.8523053728652 655.0681997058023 421.6057148175954C678.6856246034506 434.3591242623255 699.9413070113342 377.1813385851187 711.7500194601585 365.4907132607827 " transform="rotate(87, 400, 400)"></path><path d="M99.00000208767983 401.15888985608194C110.40151755551011 391.58161686310456 130.92424539760464 336.2044562358529 153.72727633326517 355.1879794897903C176.53030726892572 374.17150274372773 185.65151964318994 497.2394607034877 208.4545505788505 492.2798014749816C231.25758151451106 487.32014224647537 240.3787938887753 337.7094562776065 263.1818248244358 331.3816151929607C285.98485576009637 325.0537741083149 295.1060681343606 461.7351415366643 317.90909907002117 461.90616426868166C340.71213000568173 462.07718700069915 349.833342379946 338.3593426592728 372.6363733156065 332.2025243066445C395.43940425126704 326.0457059540161 404.5606166255313 431.3272997839609 427.36364756119184 432.3534361760656C450.1666784968524 433.3795725681703 459.2878908711167 339.1802517729566 482.0909218067772 337.12797898874715C504.8939527424377 335.0757062045377 514.0151651167018 428.65934516448857 536.8181960523625 422.5025268118602C559.6212269880232 416.3457084592319 568.7424393622873 307.91729636016595 591.5454702979479 307.575250896131C614.3485012336084 307.23320543209616 623.4697136078727 408.547071879236 646.2727445435332 420.86070858449267C669.0757754791937 433.1743452897494 689.5985033212883 377.96820739451516 701.0000187891185 366.6807070813632 " transform="rotate(84, 400, 400)"></path><path d="M109.75000201311984 401.1174894885587C120.74432049995619 391.88226195961613 140.5340937762616 338.48285706905205 162.52273074993428 356.7883973496346C184.51136772360695 375.09393763021706 193.30682251307604 493.7666113771285 215.2954594867487 488.9840828353547C237.28409646042138 484.2015542935809 246.07955124989047 339.9341071093144 268.06818822356314 333.83226034912025C290.0568251972358 327.7304135889261 298.85227998670496 459.53030360912015 320.8409169603776 459.69521838642265C342.8295539340503 459.8601331637252 351.6250087235193 340.56078326306414 373.613645697192 334.6238512801725C395.60228267086467 328.68691929728084 404.39773746033376 430.20845620472767 426.3863744340064 431.1979448685429C448.3750114076791 432.18743353235817 457.1704661971482 341.35237419411635 479.15910317082086 339.3733968664858C501.1477401444935 337.39441953885523 509.9431949339625 427.6357856788079 531.9318319076353 421.69885369591634C553.920468881308 415.76192171302466 562.7159236707771 311.2059529032111 584.7045606444498 310.87612334860603C606.6931976181224 310.5462937940009 615.4886524075915 408.2418078680286 637.4772893812641 420.1156718338119C659.4659263549368 431.9895357995951 679.2556996312422 378.7550456863336 690.2500181180785 367.8706703843656 " transform="rotate(81, 400, 400)"></path><path d="M120.50000193855985 401.0761043798244C131.08712344440227 392.1829223149168 150.1439421549186 340.76127316104026 171.31818516660337 358.3888304682679C192.49242817828815 376.0163877754955 200.96212538296209 490.2937773095583 222.1363683946469 485.68837945451696C243.3106114063317 481.0829815994755 251.78030861100564 342.1587731998115 272.9545516226904 336.28292076406893C294.12879463437525 330.40706832832643 302.5984918390492 457.32548094036514 323.77273485073397 457.48428776295276C344.94697786241875 457.6430945855404 353.4166750670927 342.7622391256445 374.59091807877746 337.0451935124896C395.7651610904623 331.3281478993347 404.23485829513623 429.08962788428346 425.409101306821 430.04246881980924C446.5833443185058 430.9953097553351 455.0530415231798 343.5245118740651 476.2272845348645 341.6188300030135C497.40152754654935 339.7131481319619 505.87122475122317 426.6122414519163 527.0454677629081 420.8951958387614C548.2197107745928 415.1781502256065 556.6894079792667 314.4946247050453 577.8636509909516 314.17701105987C599.0378940026364 313.85939741469474 607.5075912073104 407.9365591156103 628.6818342189952 419.3706503419201C649.85607723068 430.80474156822993 668.9128959411962 379.541899236941 679.5000174470387 369.060648946157 " transform="rotate(78, 400, 400)"></path><path d="M131.25000186399984 401.03471927109024C141.42992638884832 392.4835826702175 159.75379053357557 343.03968925302854 180.1136395832725 359.9892635869012C200.4734886329694 376.9388379207739 208.61742825284819 486.8209432419882 228.97727730254508 482.3926760736791C249.33712635224202 477.9644089053701 257.4810659721208 344.3834392903085 277.84091502181775 338.7335811790176C298.20076407151464 333.08372306772674 306.3447036913934 455.12065827161007 326.70455274109037 455.2733571394828C347.0644017907873 455.42605600735556 355.208341410666 344.96369498822486 375.568190460363 339.4665357448067C395.9280395100599 333.9693765013885 404.07197912993865 427.97079956383925 424.4318281796356 428.8869927710756C444.7916772293325 429.80318597831194 452.93561684921127 345.69664955401396 473.2954658989082 343.8642631395412C493.65531494860505 342.0318767250685 501.7992545684839 425.5886972250247 522.1591036181808 420.0915379816065C542.5189526678778 414.59437873818837 550.6628922877566 317.7832965068795 571.0227413374535 317.47789877113405C591.3825903871505 317.17250103538856 599.5265300070292 407.63131036319203 619.8863790567261 418.62562885002836C640.2462281064229 429.6199473368647 658.5700922511502 380.3287527875484 668.7500167759987 370.2506275079485 " transform="rotate(75, 400, 400)"></path><path d="M142.00000178943986 400.9933112741724C151.77272933329436 392.7842201373346 169.36363891223255 345.31808245683317 188.90909399994158 361.58967381735096C208.4545490876506 377.86126517786875 216.27273112273423 483.3480862862345 235.8181862104433 479.09694980465775C255.36364129815234 474.8458133230811 263.18182333323597 346.608082492622 282.727278420945 341.1842187057827C302.272733508654 335.76035491894345 310.0909155437377 452.91581271467146 329.63637063144677 453.0624036278293C349.18182571915577 453.2089945409871 357.0000077542394 347.1651279626217 376.5454628419484 341.8878550889402C396.0909179296575 336.6105822152588 403.90909996474113 426.85194835521145 423.45455505245013 427.73149383415836C443.0000101401592 428.61103931310527 450.8181921752428 347.8687643457792 470.36364726295193 346.1096733878854C489.9091023506609 344.35058242999156 497.7272843857445 424.5651301099495 517.2727394734536 419.28785723626805C536.8181945611627 414.0105843625866 544.6363765962462 321.0719454205301 564.1818316839554 320.7787635942144C583.7272867716645 320.4855817678988 591.5454688067481 407.3260387225901 611.090923894457 417.880584469953C630.636378982166 428.4351302173159 648.2272885611042 381.1155834499723 658.0000161049587 371.4405831815563 " transform="rotate(72, 400, 400)"></path><path d="M152.74998645609082 400.95193379483266C162.11551701895138 393.0848881220298 178.97347203210046 347.5965061782159 197.70453315782163 363.1901145653788C216.4355942835428 378.78372295254167 223.92801873383127 479.8752598480588 242.65907985955243 475.8012540532145C261.3901409852736 471.72724825837014 268.88256543556207 348.8327562125135 287.61362656128324 343.63488675012593C306.3446876870044 338.4370172877383 313.83711213729293 450.710997675311 332.56817326301405 450.8514806337539C351.2992343887353 450.9919635921968 358.79165883902374 349.3665914545966 377.52271996474485 344.30920495065186C396.25378109046596 339.25181844670715 403.7462055407545 425.73312766416177 422.4772666664757 426.57602541481924C441.2083277921968 427.4189231654767 448.70075224248535 350.0409096551225 467.43181336820646 348.3551141538076C486.16287449392763 346.66931865249273 493.6552989442161 423.54159351245244 512.3863600699373 418.4842070085077C531.1174211956585 413.426820504563 538.609845645947 324.3606248517588 557.3409067716682 324.079658934873C576.0719678973894 323.79869301798715 583.5643923476778 407.0207975995663 602.295453473399 417.13557060745575C621.02651459912 427.2503436153452 637.8844696122692 381.90244462997424 647.2500001751297 372.6305693727423 " transform="rotate(69, 400, 400)"></path><path d="M163.4999863815308 400.91055631549295C172.45831996339746 393.385556106725 188.58332041075744 349.87492989959867 206.49998757449072 364.7905553134067C224.416654738224 379.7061807272146 231.58332160371734 476.4024334098832 249.49998876745062 472.5055583017712C267.4166559311839 468.6086831936592 274.58332279667724 351.05742993240506 292.4999899604105 346.0855547944691C310.41665712414385 341.1136796565331 317.58332398963717 448.5061826359505 335.49999115337044 448.6405576396785C353.4166583171037 448.7749326434065 360.58332518259704 351.56805494657146 378.4999923463304 346.7305548123635C396.4166595100636 341.8930546781555 403.58332637555696 424.61430697311215 421.49999353929024 425.4205569954801C439.4166607030235 426.2268070178481 446.5833275685169 352.21305496446587 464.4999947322502 350.6005549197299C482.4166618959834 348.9880548749939 489.5833287614767 422.5180569149553 507.49999592521004 417.68055678074734C525.4166630889433 412.84305664653937 532.5833299544366 327.64930428298754 550.4999971181701 327.38055427553155C568.4166642819034 327.1118042680755 575.5833311473966 406.7155564765426 593.49999831113 416.39055674495853C611.4166654748632 426.06555701337453 627.541665922223 382.6893058099762 636.4999995040898 373.8205555639282 " transform="rotate(66, 400, 400)"></path><path d="M174.2499863069708 400.8691483185752C182.80112290784353 393.68619357384205 198.19316878941441 352.1533231034033 215.2954419911598 366.3909655438564C232.39771519290525 380.62860798430944 239.2386244736034 472.92957645412946 256.3408976753488 469.2098320327499C273.4431708770942 465.4900876113702 280.2840801577924 353.28207313471853 297.38635335953785 348.5361923212342C314.48862656128324 343.79031150774983 321.3295358419814 446.3013370790119 338.43180904372684 446.42960412802495C355.5340822454723 446.557871177038 362.37499152617045 353.7694879209683 379.4772647279158 349.151874156497C396.5795379296612 344.5342603920258 403.4204472103594 423.49545576448435 420.52272041210483 424.2650580585629C437.6249936138503 425.0346603526414 444.46590289454844 354.3851697562311 461.5681760962939 352.84596516807403C478.6704492980392 351.30676057991695 485.5113585787374 421.4944897998801 502.6136317804828 416.8768760354089C519.7159049822283 412.2592622709376 526.5568142629264 330.93795319663815 543.6590874646719 330.68141909861197C560.7613606664173 330.4248850005858 567.6022699471155 406.4102848359407 584.7045431488608 415.6455123648832C601.8068163506061 424.88073989382576 617.1988622321771 383.47613647240007 625.7499988330499 375.0105112375361 " transform="rotate(63, 400, 400)"></path><path d="M184.99998623241083 400.8277632098409C193.14392585228958 393.98685392914274 207.8030171680714 354.4317391953916 224.09089640782892 367.9913986624897C240.37877564758645 381.5510581295879 246.89392734348948 469.4567423865593 263.181806583247 465.91412865191205C279.4696858230045 462.3715149172648 285.98483751890757 355.5067392252156 302.2727167586651 350.98685273618287C318.5605959984226 346.46696624715014 325.0757476943257 444.0965144102569 341.3636269340832 444.218673504555C357.65150617384074 444.3408325988532 364.16665786974374 355.97094378354865 380.4545371095013 351.5732163888141C396.74241634925886 347.17548899407956 403.25756804516186 422.37662744404014 419.5454472849194 423.10958200982924C435.833326524677 423.84253657561834 442.34847822058 356.55730743617994 458.6363574603375 355.09139830460174C474.92423670009504 353.62548917302354 481.43938839599804 420.4709455729885 497.7272676357556 416.07321817825397C514.0151468755132 411.6754907835194 520.5302985714161 334.22662499847235 536.8181778111737 333.982306809876C553.1060570509313 333.7379886212796 559.6212087468343 406.10503608352235 575.9090879865919 414.90049087299144C592.1969672263492 423.69594566246053 606.856058542131 384.2629900230075 614.9999981620099 376.2004897993275 " transform="rotate(60, 400, 400)"></path><path d="M195.74998615785083 400.7863933598957C203.48672879673566 394.2875295432325 217.41286554672837 356.71017054616885 232.88635082449804 369.5918470399121C248.35983610226768 382.47352353365534 254.54923021337555 465.9839235777782 270.0227154911452 462.61844052986334C285.49620076891483 459.25295748194844 291.68559488002273 357.73142057450167 307.1590801577924 353.43752840992056C322.63256543556207 349.1436362453395 328.82195954667 441.89170700029086 344.29544482443964 442.0077581398741C359.7689301022093 442.1238092794574 365.95832421331716 358.17241490491807 381.43180949108677 353.99457387992027C396.90529476885644 349.81673285492246 403.09468887996434 421.257814382385 418.568174157734 421.95412121988466C434.0416594355037 422.65042805738426 440.2310535466115 358.72946037491783 455.7045388243812 357.3368466999185C471.1780241021508 355.94423302491924 477.36741821325865 419.447416604886 492.84090349102837 415.26957557988817C508.31438876879804 411.0917345548903 514.5037828799059 337.5153120590956 529.9772681576756 337.28320977992905C545.4507534354452 337.0511075007625 551.6401475465532 405.79980258989315 567.1136328243227 414.15548463988875C582.5871181020924 422.51116668988436 596.5132548520851 385.04985883240397 604.2499974909699 377.390483619908 " transform="rotate(57, 400, 400)"></path><path d="M206.49998608329082 400.74499299237243C213.8295317411817 394.5881746397441 227.02271392538535 358.988571379368 241.68180524116713 371.19226489975637C256.3408965569489 383.3959584201447 262.2045330832616 462.511074251419 276.8636243990434 459.3227218902365C291.52271571482515 456.13436952905397 297.38635224113796 359.9560714062096 312.04544355691974 355.8881735660802C326.70453487270146 351.82027572595075 332.5681713990142 439.6868690727468 347.227262714796 439.7968122576151C361.88635403057776 439.9067554424835 367.74999055689045 360.3738555087094 382.40908187267223 356.4159008534483C397.068173188454 352.45794619818724 402.93180971476676 420.1389708031518 417.59090103054854 420.79862991236195C432.2499923463304 421.4582890215721 438.11362887264306 360.90158279607755 452.77272018842484 359.5822645776572C467.4318115042066 358.2629463592368 473.2954480305193 418.4238571192053 487.95453934630115 414.4659024639442C502.6136306620829 410.5079478086831 508.4772671883956 340.80396860214074 523.1363585041775 340.584082232404C537.7954498199592 340.36419586266726 543.6590863462719 405.49453857868576 558.3181776620538 413.41044788920794C572.9772689778355 421.32635719973007 586.1704511620391 385.8366971242224 593.49999681993 378.58044692291037 " transform="rotate(54, 400, 400)"></path><path d="M217.24998600873084 400.7036078836382C224.1723346856278 394.88883499504476 236.63256230404232 361.2669874713563 250.4772596578362 372.79269801838973C264.32195701163016 384.3184085654231 269.8598359531477 459.03824018384887 283.7045333069416 456.02701850939866C297.5492306607355 453.0157968349485 303.08710960225307 362.1807374967067 316.931806956047 358.33883398102887C330.7765043098409 354.49693046535106 336.3143832513585 437.4820464039918 350.1590806051524 437.5858816341452C364.00377795894633 437.68971686429865 369.54165690046386 362.5753113712898 383.38635425425775 358.8372430857654C397.23105160805164 355.0991748002411 402.76893054956923 419.02014248270757 416.6136279033632 419.6431538636283C430.458325257157 420.26616524454903 435.9962041986746 363.0737204760264 449.8409015524685 361.8276977141849C463.6855989062624 360.58167495234346 469.2234778477799 417.40031289231365 483.06817520157387 413.66224460678933C496.9128725553678 409.92417632126495 502.4507514968854 344.09264040397494 516.2954488506793 343.884969943668C530.1401462044732 343.6772994833611 535.6780251459908 405.18928982626744 549.5227224997847 412.66542639731614C563.3674198535786 420.1415629683649 575.827647471993 386.6235506748298 582.74999614889 379.77042548470183 " transform="rotate(51, 400, 400)"></path><path d="M227.99998593417087 400.66221514550944C234.51513763007387 395.1894877209509 246.2424106826993 363.54539593395 259.2727140745053 374.3931235076285C272.30301746631136 385.240851081307 277.5151388230338 455.5653984868842 290.5454422148398 452.73130749916635C303.5757456066458 449.89721651144856 308.7878669633683 364.40539595780916 321.8181703551743 360.78948676658297C334.8484737469803 357.17357757535683 340.0605951037027 435.2772161058422 353.0908984955088 435.37494338128073C366.1212018873148 435.4726706567193 371.3333232440372 364.7767596044756 384.3636266358432 361.258577688688C397.3939300276493 357.7403957729004 402.60605138437165 417.90130653286883 415.6363547761777 418.4876701855001C428.66665816798377 419.0740338381314 433.87877952470615 365.2458505265806 446.9090829165122 364.0731232213181C459.9393863083182 362.9003959160556 465.15150766504064 416.3767610360275 478.18181105684664 412.8585791202399C491.2121144486527 409.34039720445224 496.4242358053751 347.3813045764146 509.4545391971812 347.1858500255375C522.4848425889872 346.99039547466043 527.6969639457096 404.8840334444546 540.7272673375156 411.92039727602986C553.7575707293216 418.95676110760513 565.4848437819471 387.4103965960427 571.99999547785 380.9603964170987 " transform="rotate(48, 400, 400)"></path><path d="M238.74998585961083 400.6208300367752C244.85794057451994 395.4901480762516 255.85225906135628 365.8238120259382 268.06816849117445 375.9935566262618C280.28407792099256 386.1633012265854 285.17044169291984 452.09256441931404 297.386351122738 449.43560411832857C309.6022605525561 446.7786438173431 314.4886243244834 366.6300620483062 326.70453375430156 363.24014718153165C338.92044318411973 359.85023231475714 343.806806956047 433.07239343708716 356.0227163858651 433.1640127578108C368.2386258156833 433.2556320785344 373.12498958761057 366.97821546705603 385.3408990174287 363.67991992100514C397.55680844724685 360.3816243749542 402.44317221917413 416.7824782124246 414.65908164899224 417.3321941367665C426.87499107881047 417.8819100611083 431.7613548507377 367.41798820652946 443.97726428055586 366.31855635784586C456.19317371037397 365.2191245091622 461.07953748230125 415.3532168091359 473.2954469121194 412.054921263085C485.5113563419376 408.7566257170341 490.39772011386486 350.66997637824875 502.61362954368303 350.4867377368015C514.8295389735013 350.30349909535425 519.7159027454284 404.5787846920363 531.9318121752466 411.1753757841381C544.1477216050647 417.7719668762399 555.142040091901 388.19725014665016 561.2499948068102 382.15037497889017 " transform="rotate(45, 400, 400)"></path><path d="M249.49998578505085 400.5794411133437C255.200743518966 395.790804616855 265.46210744001326 368.10222430322915 276.86362290784353 377.59398593019785C288.2651383756738 387.0857475571666 292.8257445628059 448.6197265370466 304.2272600306362 446.1398969227935C315.62877549846644 443.6600673085404 320.1893816855986 368.854724324106 331.59089715342884 365.6908037817831C342.9924126212591 362.5268832394602 347.55301880839124 430.8675669536349 358.9545342762215 430.95307831964357C370.3560497440518 431.0385896856523 374.9166559311839 369.1796675149391 386.3181713990142 366.101258338625C397.7196868668444 363.02284916231076 402.2802930539766 415.66364607728315 413.68180852180683 416.17671427333556C425.08332398963717 416.6897824693879 429.6439301767693 369.590122071781 441.04544564459957 368.5639856796763C452.4469611124298 367.5378492875716 457.00756729956186 414.32966876754705 468.4090827673922 411.25125959123284C479.8105982352225 408.1728504149187 484.3712044223546 353.9586443653857 495.7727198901849 353.78762163336825C507.17423535801515 353.6165989013508 511.7348415451473 404.27353212492073 523.1363570129776 410.4303504775491C534.5378724808078 416.58716883017746 544.7992364018551 388.9840998825603 550.4999941357702 383.3403497259843 " transform="rotate(42, 400, 400)"></path><path d="M260.2499857104909 400.5380521899122C265.54354646341204 396.0914611574584 275.07195581867023 370.38063658052016 285.6590773245126 379.19441523413394C296.246198830355 388.0081938877477 300.481047432692 445.14688865477916 311.06816893853437 442.8441897272585C321.65529044437676 440.54149079973774 325.8901390467138 371.0793865999058 336.4772605525561 368.14146038203444C347.06438205839856 365.2035341641632 351.29923066073553 428.6627404701826 361.8863521665779 428.7421438814764C372.4734736724203 428.8215472927702 376.7083222747573 371.3811195628223 387.29544378059967 368.5225967562448C397.88256528644206 365.66407394966734 402.1174138887791 414.54481394214173 412.7045353946214 415.02123440990465C423.29165690046386 415.4976548776675 427.52650550280083 371.7622559370326 438.1136270086432 370.80941500150675C448.7007485144856 369.8565740659809 452.9355971168225 413.3061207259582 463.52271862266497 410.4475979193807C474.10984012850736 407.58907511280324 478.34468873084427 357.2473123525226 488.9318102366867 357.088505529935C499.51893174252916 356.92969870734737 503.75378034486613 403.96827955780515 514.3409018507085 409.68532517096C524.928023356551 415.40237078411496 534.456432711809 389.77094961847047 539.7499934647303 384.5303244730785 " transform="rotate(39, 400, 400)"></path><path d="M270.9999856359309 400.4966518223889C275.8863494078581 396.39210625397004 284.6818041973272 372.6590374137193 294.4545317411817 380.79483309397824C304.2272592850362 388.9306287742371 308.1363503025781 441.67403932842 317.9090778464326 439.5484710876316C327.6818053902871 437.4229028468433 331.59089640782895 373.3040374316137 341.36362395168345 370.59210553819406C351.13635149553795 367.88017364477446 355.0454425130798 426.45790254263846 364.8181700569343 426.5311979992174C374.5908976007888 426.6044934557963 378.49998861833063 373.5825601666136 388.27271616218513 370.94392372977285C398.0454437060397 368.3052872929321 401.9545347235815 413.42597036290846 411.727262267436 413.86574310238194C421.49998981129056 414.30551584185537 425.4090808288323 373.93437835819236 435.1818083726869 373.0548328792454C444.9545359165414 372.17528740029854 448.8636269340832 412.28256124027746 458.63635447793774 409.6439248034368C468.4090820217923 407.00528836659606 472.31817303933406 360.53596889556775 482.0909005831886 360.38937798240994C491.86362812704317 360.24278706925213 495.772719144585 403.6630155465978 505.5454466884394 408.9402884202792C515.3181742322939 414.21756129396067 524.113629021763 390.5577879102889 528.9999927936904 385.7202877760809 " transform="rotate(36, 400, 400)"></path><path d="M281.7500008201599 400.4552743430492C286.22916761109326 396.6927742386652 294.29166783477325 374.93746113510207 303.25000141663986 382.3952738420061C312.20833499850653 389.85308654891 315.7916684312532 438.20121289024434 324.75000201311985 436.25277533618834C333.70833559498647 434.30433778213234 337.2916690277332 375.52871115150526 346.2500026095998 373.0427735825373C355.20833619146646 370.5568360135693 358.7916696242131 424.253087503278 367.7500032060798 424.320275005142C376.7083367879464 424.387462507006 380.29167022069305 375.78402365858847 389.2500038025597 373.3652735914845C398.20833738442633 370.9465235243805 401.791670817173 412.3071496718588 410.75000439903965 412.7102746830428C419.7083379809063 413.1133996942268 423.291671413653 376.10652366753567 432.2500049955196 375.3002736451677C441.20833857738626 374.49402362279966 444.79167201013286 411.2590246427804 453.7500055919995 408.8402745756764C462.7083391738662 406.4215245085724 466.29167260661285 363.8246483267965 475.2500061884796 363.6902733230685C484.20833977034624 363.5558983193405 487.79167320309284 403.357774423574 496.7500067849595 408.195274557782C505.7083403668261 413.03277469198997 513.770840590506 391.34464909029083 518.2500073814394 386.91027396726685 " transform="rotate(33, 400, 400)"></path><path d="M292.50000074559995 400.41388160492045C296.57197055553934 396.99342696457137 303.9015162134302 377.2158695976958 312.045455833309 383.99569933124485C320.1893954531878 390.77552906479394 323.4469713011393 434.72837119327966 331.590910921018 432.957064325956C339.7348505408968 431.1857574586324 342.99242638884834 377.7533696126078 351.1363660087271 375.49342636809143C359.28030562860584 373.23348312357507 362.53788147655735 422.04825720512844 370.6818210964361 422.1093367522775C378.8257607163149 422.17041629942656 382.0833365642664 377.9854718917743 390.2272761841452 375.78660819440705C398.37121580402396 373.5877444970398 401.62879165197546 411.1883137220201 409.77273127185424 411.5547910049146C417.916670891733 411.92126828780914 421.1742467396845 378.27865371808997 429.31818635956324 377.54569915230087C437.462125979442 376.81274458651177 440.7197018273936 410.23547278649426 448.86364144727236 408.036609089127C457.00758106715114 405.8377453917597 460.2651569151026 367.11331249923614 468.40909653498136 366.991153404938C476.5530361548602 366.8689943106398 479.8106120028117 403.0525180417612 487.9545516226905 407.4502454364957C496.09849124256914 411.84797283123027 503.42803690046003 392.1314950115038 507.5000067103995 388.1002448996637 " transform="rotate(30, 400, 400)"></path><path d="M303.25000067103997 400.3724964961862C306.91477349998536 397.29408731987206 313.5113645920872 379.49428568968403 320.8409102499781 385.59613244987816C328.170455907869 391.6979792100724 331.10227417102533 431.2555371257095 338.4318198289162 429.66136094511825C345.7613654868071 428.067184764527 348.6931837499635 379.9780357031048 356.0227294078544 377.9440867830401C363.3522750657453 375.9101378629754 366.28409332890163 419.84343453637337 373.6136389867925 419.89840612880755C380.9431846446834 419.95337772124174 383.87500290783976 380.1869277543547 391.20454856573065 378.20795042672415C398.53409422362154 376.22897309909365 401.46591248677794 410.0694854015759 408.7954581446688 410.39931495618094C416.1250038025597 410.72914451078606 419.05682206571606 380.45079139803875 426.38636772360695 379.7911322888286C433.71591338149784 379.1314731796184 436.6477316446542 409.21192855960265 443.9772773025451 407.2329512319721C451.30682296043597 405.2539739043416 454.23864122359237 370.40198430107034 461.56818688148326 370.292041116202C468.89773253937415 370.1820979313336 471.8295508025305 402.74726928934285 479.15909646042144 406.705223944604C486.48864211831227 410.66317859986503 493.08523321041406 392.9183485621112 496.7500060393595 389.2902234614552 " transform="rotate(27, 400, 400)"></path><path d="M314.00000059647994 400.33110948010335C317.2575764444315 397.59474576782407 323.1212129707442 381.7726998743236 329.6363646666472 387.1965636611629C336.1515163625502 392.62042744800215 338.7575770409114 427.78270115079073 345.27272873681443 426.36565565693184C351.78788043271743 424.9486101630729 354.3939411110787 382.2026998862532 360.9090928069817 380.3947452906401C367.4242445028847 378.58679069502705 370.0303051812459 417.6386099602697 376.5454568771489 417.68747359798897C383.0606085730519 417.7363372357083 385.66666925141317 382.38838170958644 392.18182094731617 380.6292907516926C398.69697264321917 378.8701997937988 401.30303332158036 408.95065517378305 407.8181850174834 409.24383700009867C414.3333367133864 409.53701882641434 416.9393973917476 382.62292717063895 423.45454908765066 382.0365635180077C429.96970078355366 381.4501998653764 432.57576146191485 408.1883824253624 439.09091315781785 406.4292914674686C445.6060648537209 404.6702005095748 448.21212553208204 373.6906541955559 454.72727722798516 373.5929269201174C461.24242892388816 373.49519964467885 463.84848960224934 402.44201862957595 470.36364129815234 405.9602005453636C476.87879299405535 409.47838246115117 482.7424295203681 393.70520020537 486.00000536831953 390.480200115898 " transform="rotate(24, 400, 400)"></path><path d="M324.75000052191996 400.28972055667185C327.6003793888775 397.8954023084275 332.73106134940116 384.0511121516146 338.4318190833163 388.7969929650989C344.13257681723144 393.54287377858327 346.41287991079747 424.3098632685233 352.11363764471264 423.06994846139673C357.81439537862775 421.8300336542702 360.09469847219384 384.427362162053 365.79545620610895 382.84540189089154C371.49621394002406 381.2634416197301 373.77651703359015 415.43378347681744 379.47727476750526 415.4765391598218C385.17803250142043 415.5192948428261 387.45833559498647 384.5898337574696 393.15909332890163 383.05062916931246C398.85985106281674 381.5114245811554 401.14015415638283 407.8318230386416 406.84091189029795 408.08835713666775C412.5416696242131 408.34489123469393 414.8219727177792 384.7950610358905 420.5227304516943 384.28199283983815C426.2234881856094 383.7689246437858 428.50379127917546 407.1648343837735 434.2045490130906 405.6256297956164C439.9053067470058 404.08642520745934 442.18560984057183 376.97932218269284 447.88636757448694 376.8938108166841C453.5871253084021 376.8082994506754 455.86742840196814 402.13676606246037 461.5681861358833 405.2151752387745C467.2689438697984 408.29358441508873 472.39962583032207 394.49204994128013 475.2500046972796 391.67017486299216 " transform="rotate(21, 400, 400)"></path><path d="M335.50000044736 400.248333540589C337.9431823333236 398.19606075637955 342.34090972805814 386.32952633625416 347.2272734999854 390.39742417638365C352.11363727191264 394.4653220165131 354.06818278068357 420.83702729360454 358.95454655261085 419.7742431732103C363.8409103245381 418.71145905281617 365.795455833309 386.6520263452014 370.6818196052362 385.2960603984916C375.5681833771635 383.94009445178176 377.52272888593444 413.2289589007138 382.4090926578617 413.26560662900323C387.29545642978894 413.30225435729267 389.2500019385599 386.7912877127013 394.1363657104871 385.471969494281C399.0227294824144 384.1526512758606 400.97727499118525 406.71299281084873 405.86363876311253 406.9328791805855C410.7500025350398 407.1527655503222 412.7045480438107 386.9671968084907 417.59091181573797 386.52742406901723C422.4772755876652 386.0876513295438 424.4318210964361 406.14128824953326 429.3181848683634 404.8219700311129C434.2045486402907 403.50265181269253 436.15909414906156 380.2679920771784 441.04545792098884 380.19469662059953C445.9318216929161 380.1214011640206 447.886367201687 401.8315154026934 452.7727309736142 404.47015183953414C457.6590947455415 407.10878827637487 462.05682214027604 395.27890158453897 464.5000040262397 392.860151517435 " transform="rotate(18, 400, 400)"></path><path d="M346.2499965581027 400.2069465245061C348.2859814630724 398.4967192043316 351.95075429201785 388.6079405208938 356.02272410195724 391.9978553876683C360.0946939118966 395.3877702544429 361.72348183587235 417.3641913186857 365.79545164581174 416.4785378850239C369.8674214557511 415.5928844513621 371.4962093797269 388.8766905283498 375.5681791896663 387.7467189060916C379.6401489996057 386.61674728383343 381.2689369235814 411.0241343246101 385.3409067335208 411.05467409818465C389.4128765434602 411.0852138717592 391.0416644674359 388.99274166793305 395.11363427737535 387.89330981924945C399.1856040873147 386.7938779705658 400.81439201129047 405.59416258305595 404.88636182122985 405.7774012245032C408.95833163116924 405.9606398659505 410.587119555145 389.1393325810909 414.65908936508436 388.7728552981963C418.73105917502374 388.4063780153018 420.3598470989995 405.117742115293 424.4318169089389 404.0183102666094C428.5037867188783 402.9188784179257 430.132574642854 383.55666197166397 434.2045444527934 383.4955824245149C438.2765142627328 383.4345028773658 439.9053021867086 401.5262647429265 443.97727199664797 403.72512844029376C448.0492418065873 405.923992137661 451.71401463553275 396.06575322779776 453.7499995405025 394.05012817187776 " transform="rotate(15, 400, 400)"></path><path d="M356.9999964835427 400.165555693726C358.6287844075185 398.79737383758635 361.5606026706748 390.8863508908361 364.8181785186263 393.59828278425573C368.0757543665778 396.3102146776754 369.37878470575845 413.89135152906965 372.63636055370995 413.18282878214023C375.89393640166145 412.47430603521076 377.1969667408421 391.1013508968009 380.4545425887936 390.1973735989944C383.7121184367451 389.29339630118784 385.0151487759257 408.8193059338092 388.2727246238772 408.8437377526688C391.5303004718287 408.8681695715285 392.8333308110093 391.1941918084675 396.0909066589608 390.31464632952066C399.3484825069123 389.43510085057375 400.65151284609294 404.47532854056584 403.90908869404444 404.62191945372365C407.16666454199594 404.7685103668815 408.46969488117657 391.3114645389938 411.72727072912807 391.0182827126782C414.98484657707957 390.7251008863625 416.2878769162602 404.0941921663555 419.54545276421163 403.2146466874086C422.8030286121632 402.3351012084617 424.10605895134375 386.84532805145227 427.3636347992953 386.796464413733C430.6212106472468 386.7476007760137 431.92424098642744 401.2210102684623 435.1818168343789 402.9801012263561C438.43939268233044 404.73919218424993 441.3712109454868 396.8526010563593 442.9999988694625 395.2401010116233 " transform="rotate(12, 400, 400)"></path><path d="M367.7499964089827 400.1241667702945C368.97158735196456 399.0980303781898 371.1704510493318 393.1647631681271 373.6136329352954 395.1987120881918C376.0568148212591 397.2326610082565 377.03408757564455 410.41851364680224 379.47726946160816 409.8871215866052C381.92045134757177 409.3557295264081 382.89772410195724 393.3260131726007 385.34090598792085 392.6480301992458C387.78408787388446 391.9700472258909 388.7613606282699 406.6144794503569 391.2045425142336 406.63280331450164C393.6477244001972 406.65112717864633 394.6249971545827 393.39564385635066 397.0681790405463 392.7359847471405C399.51136092650995 392.07632563793027 400.48863368089536 403.35649640542437 402.931815566859 403.46643959029274C405.37499745282264 403.5763827751611 406.3522702072081 393.48359840424536 408.7954520931717 393.2637120345086C411.23863397913533 393.0438256647719 412.2159067335208 403.07064412476666 414.65908861948446 402.41098501555643C417.1022705054481 401.75132590634627 418.0795432598335 390.1339960385892 420.52272514579715 390.09734831029976C422.9659070317608 390.0607005820103 423.94317978614623 400.9157577013467 426.38636167210984 402.23507591976704C428.8295435580735 403.55439413818743 431.02840725544075 397.6394507922695 432.2499981984226 396.4300757587175 " transform="rotate(9, 400, 400)"></path><path d="M378.50000014911996 400.082777846863C379.31439411110784 399.39868691879315 380.78030324268605 395.4431754454181 382.4090911666618 396.79914139212786C384.03787909063755 398.1551073388377 384.68939426022786 406.9456757645348 386.3181821842036 406.5914143910701C387.94697010817936 406.23715301760535 388.59848527776967 395.55067544840045 390.22727320174545 395.09868679949716C391.85606112572117 394.6466981505939 392.5075762953115 404.40965296690456 394.1363642192872 404.42186887633443C395.765152143263 404.43408478576424 396.4166673128533 395.59709590423375 398.04545523682907 395.1573231647603C399.6742431608048 394.71755042528684 400.3257583303951 402.23766427028295 401.9545462543708 402.3109597268618C403.5833341783466 402.38425518344076 404.2348493479369 395.65573226949687 405.8636372719127 395.5091413563391C407.4924251958884 395.36255044318125 408.1439403654787 402.04709608317773 409.77272828945445 401.6073233437043C411.4015162134302 401.1675506042309 412.05303138302054 393.42266402572614 413.6818193069963 393.3982322068665C415.31060723097204 393.3738003880069 415.96212240056235 400.6105051342312 417.5909103245381 401.490050613178C419.21969824851385 402.36959609212494 420.68560738009205 398.42630052817964 421.5000013420799 397.62005050581166 " transform="rotate(6, 400, 400)"></path><path d="M389.25000007456 400.0413889234315C389.6571970555539 399.6993434593966 390.390151621343 397.72158772270905 391.2045455833309 398.39957069606396C392.01893954531874 399.0775536694189 392.3446971301139 403.4728378822674 393.1590910921018 403.29570719553504C393.9734850540897 403.1185765088027 394.29924263888483 397.7753377242002 395.1136366008727 397.5493433997486C395.9280305628606 397.32334907529696 396.25378814765577 402.2048264834523 397.0681821096436 402.2109344381672C397.8825760716315 402.2170423928821 398.20833365642665 397.7985479521169 399.02272761841454 397.57866158238016C399.83712158040237 397.3587752126434 400.1628791651975 401.1188321351415 400.9772731271854 401.1554798634309C401.7916670891733 401.19212759172035 402.11742467396846 397.82786613474843 402.93181863595635 397.75457067816956C403.74621259794424 397.6812752215906 404.07197018273934 401.02354804158887 404.8863641447272 400.8036616718522C405.7007581067151 400.58377530211544 406.02651569151027 396.71133201286307 406.84090965349816 396.69911610343325C407.655303615486 396.68690019400344 407.98106120028115 400.3052525671156 408.79545516226904 400.745025306589C409.6098491242569 401.1847980460625 410.342803690046 399.21315026408985 410.75000067103997 398.8100252529058 " transform="rotate(3, 400, 400)"></path></g></svg>