<svg xmlns="http://www.w3.org/2000/svg" version="1.1" xmlns:xlink="http://www.w3.org/1999/xlink" xmlns:svgjs="http://svgjs.dev/svgjs" viewBox="0 0 800 800"><defs><linearGradient x1="50%" y1="0%" x2="50%" y2="100%" id="ssscribble-grad"><stop stop-color="hsl(353, 98%, 41%)" stop-opacity="0.1" offset="0%"></stop><stop stop-color="hsl(331, 3%, 55%)" stop-opacity="0.2" offset="100%"></stop></linearGradient></defs><g fill="none" stroke-width="1.5" stroke="url(#ssscribble-grad)" stroke-linecap="round"><path d="M1047.95 475.59C1101.24 508.45 1077.22 552.9 988.64 606.58 863.55 658.88 738.23 717.17 644.39 775.77 599.69 825.89 607.15 866.54 653.52 888.82 728.27 891.18 803.69 867.07 862.25 815.7 902.45 753.17 911.3 681.81 892.8 619.76 853.3 591.67 798.17 605.41 737.2 669.05 669.23 774.13 605 900.76 549.43 1016.72 493.18 1089.32 447.66 1095.36 414.8 1028.1 381.94 911.67 363.29 783.21 357.58 681.85 351.17 633.67 355.62 645.81 366.64 705.68 370.66 798.04 371.68 889.39 360.53 956.43 328.39 992.08 272.36 984.37 189.09 940.16 87.46 867.23 -26.92 778.39 -135.88 687.19 -216.47 594.1 -253.4 511.8 -232.78 443.06 -163.03 380.64 -56.41 329.73 55.98 287.47 131.88 247.8 149.24 212.22 95.95 179.36 -14.85 146.5 -139.79 117.91 -237.39 95.61 -283.94 75.89 -262.29 67.02 -183.54 72.49 -68.11 84.28 55.05 112.46 160.22 154.9 251.4 216.29 218.13 252.52 155.28 167.04 111.64 65.78 82.6 -55.02 70.36 -171.47 64.77 -255.43 73.81 -286.29 93.79 -250.81 116.46 -162.14 145.29 -40.35 178.15 76.08 211.01 143.36 246.34 144 285.65 84.1 327.64 -19.17 378.38 -127.1 440.92 -208.1 510.1 -247.67 593.26 -231.94 687.54 -169.65 779.84 -73.39 869.41 36.93 942.1 142.53 984.78 236.97 989.44 308.26 949.63 356.55 878.68 384.93 784.98 398.39 693.64 405.22 638.97 403.57 636.02 405.06 695.26 414.73 805.54 423.02 937.13 442.73 1047.95 475.59Q1047.95 475.59 1047.95 475.59" opacity="0.71"></path><path d="M1013.95 582.77C1065.86 613.28 1050.9 650.1 977.76 690.7 867.23 729.15 747.46 767.04 645.98 798.96 579.79 822.17 557.62 831.7 574.19 822.24 624.17 799.26 687.5 756.38 748.12 697.62 821.76 614.16 836.13 576.07 790.31 677.01 747.17 785.14 700.88 902.76 657.01 1002.72 611.28 1060.35 571.9 1058.77 541.39 994.1 510.88 886.87 490.67 766.71 478.85 665.74 465.18 606.49 455.97 598.45 446.23 635.57 427.81 708.97 400.27 793.06 357.31 867.18 298.01 924.42 219.16 948.39 123.04 939.38 22.43 902.73 -77.07 843.58 -158.82 772.95 -207.16 692.6 -212.36 614.08 -168.53 543.19 -89.42 473.41 12.97 413.83 111.72 364.8 173.09 317.1 181.86 277.97 129.95 247.45 28.24 216.94 -87.85 196.49 -184.59 186.64 -242.18 178.12 -242.18 182.19 -189.08 199.09 -96.2 217.09 15.75 245.36 124.33 278.68 217.13 302.29 280.85 317.64 314.44 314.3 319.4 283.33 304.55 223.19 280.66 134.18 246.55 28.29 217.37 -83.15 198.58 -178.92 180.95 -238.42 176.41 -247.76 184.68 -200.3 194.35 -111.12 214.74 2.84 245.25 110.08 275.77 174.77 314.96 182.55 362.84 136.71 412.11 48.53 472.15 -51.71 542.66 -137.48 614.34 -195.72 693.77 -209.05 774.9 -179.17 845.82 -113.61 904.48 -24.39 939.52 72.53 945.92 171.28 918.38 257.97 857.35 327.98 780.54 384.48 695.95 425.2 625.43 454.87 594.7 475.84 612.07 493.46 681.44 512.55 789.95 529.5 912.24 552.26 1013.95 582.77Q1013.95 582.77 1013.95 582.77" opacity="0.94"></path><path d="M979.95 626.82C1030.09 654.99 1023.13 682.64 964.7 707.91 869.85 731.14 759.52 748.16 656.53 755.32 575.87 756.04 529.13 742.67 516.82 713.69 537.37 679.09 578.5 633.05 627.54 582.17 683.14 542.33 728.92 514.99 759.59 511.37 781.31 540.27 786.05 601.64 776.88 691.95 760.33 797.42 735.54 902.84 706.9 986.26 676.14 1029.9 645.6 1021.82 617.44 960.1 589.27 861.99 564.81 750.67 542.44 652.03 517.97 584.88 491.52 559.56 459.26 574.69 419.61 626.14 368.49 695.78 303.36 766.86 229.27 833.85 143.06 879.21 50.54 898.84 -35.4 896.6 -109.93 870.76 -159.81 828.54 -176.82 773.12 -155.35 712 -95.33 651.82 -12.99 588.6 81.3 531.54 165.28 483.37 212.84 435.2 214.09 396.4 163.95 368.23 71.22 340.06 -35.59 323.85 -129.53 318.91 -194.81 313.96 -213.15 319.77 -184.52 334.18 -116.89 345.55 -23.36 360.29 78.08 372.3 177.1 371.11 259.16 356.52 318.74 321.85 356.02 265.31 372.29 186.56 374.32 90.24 362.54 -10.15 347.55 -105.05 335.74 -177.16 320.72 -212.94 314.36 -203.66 318.93 -147.39 323.49 -59.63 339.5 45.96 367.67 144.08 395.83 205.81 434.82 219.63 483.38 186.86 531.93 114.31 589.53 24.93 653.36 -59.89 713.99 -129.56 775.37 -165.68 830.55 -165.25 871.94 -132.31 896.1 -71.57 895.74 5.17 873.07 92.97 824.41 179.44 754.72 257.46 682.6 329.84 614.33 389.6 567.35 437.69 559.36 479.35 593.74 513.56 669.89 543.46 774.69 571.3 887.22 598.65 979.95 626.82Q979.95 626.82 979.95 626.82" opacity="0.34"></path><path d="M945.95 592.53C993.93 618.35 993.86 637.84 949.19 650.21 870.51 661.26 772.65 662.9 673.73 653.78 585.96 641.69 521.6 618.13 484.72 584.62 476 552.46 489.95 517.04 518.01 485.33 559.33 469.3 600.53 469.85 634.99 493.9 667.97 544.03 688.73 618.57 696.96 711.41 700.88 809.29 694.35 900.18 679.61 967.11 663.26 997.98 641.58 984.5 615.76 926.1 589.94 837.02 561.2 735.01 528.86 640.47 494.91 568.55 454.47 529.39 405.8 524.59 352.83 553.24 289.55 603.66 216.78 663.38 142.52 728.73 64.26 783.53 -10.9 821.44 -95.08 847.5 -104.92 792.1 -15.48 733.04 64.51 686.94 147.67 641.89 216.39 601.55 251.09 560.25 245.93 525.8 197.95 499.98 114.07 474.15 16.88 458.19 -72.52 450.79 -142.19 442.43 -175.08 440.52 -168.36 441.87 -126.41 438.08 -55.9 431.8 29.96 417.88 123.31 391.39 211.01 350.54 285.44 292.54 346.29 220.79 389.52 135.38 417.75 43.14 432.97 -43.45 439.96 -117.03 444.06 -164.61 442.75 -178.74 444.54 -154.29 452.75 -92.35 459.94 -7.78 475.78 88.98 501.6 178.07 527.42 236.48 561.99 255.21 603.5 234.32 643.99 177.36 689.16 101.16 735.21 22.21 775.87 -51.7 811.4 -103.09 835.97 -126.34 847.53 -123.51 841.37 -93.45 814.36 -43.58 773.77 21.96 716.68 94.45 650.21 166.4 591.23 239.71 543.88 305.79 520.85 362.63 533.06 416.49 580.65 461.81 660.28 499.46 759.65 535.78 862.07 566.71 945.95 592.53Q945.95 592.53 945.95 592.53" opacity="0.54"></path><path d="M911.98 491.74C957.39 515.22 963.06 529.39 930.93 534.49 868.29 539.17 785.02 534.26 694.84 520.38 607.06 506.77 532.96 486.06 478.34 461.42 438.34 434.77 466.14 441.77 503.99 500.26 533.42 564.03 556.57 643.83 570.91 732.65 584.35 819.04 588.09 894.04 582.2 945.08 575.57 964.56 560.47 946.83 537 892.11 513.52 811.95 482.8 719.59 445.16 630.73 406.78 557.11 360.34 507.88 306.23 486.31 251.21 493.32 189.4 522.38 123.8 565.04 62.28 619.38 3.56 672.13 -45.75 716.52 -79.69 755.39 -94.64 779.6 -85.52 789.24 -55.34 789.77 -2.28 778.51 68.28 759.06 141.25 734.46 211.17 706.3 264.74 677.86 287.82 648.1 277.39 620.67 231.98 597.2 156.79 573.72 69.48 555.33 -13.89 540.82 -84.81 524.99 -128.18 510.45 -139.76 494.37 -121.8 473.14 -76.07 445.75 -11.35 409.05 66.75 363.23 148.11 305.33 224.9 235.69 296.8 160.54 357.01 79.96 404.88 1.18 443.51 -65.92 472.36 -116.02 494.59 -140.24 511.49 -135.87 526.52 -100.01 542.61 -35.45 557.32 44.35 575.8 131.95 599.28 212.11 622.74 266.83 650.09 289.31 679.65 278.89 707.83 236.91 735.49 175.26 759.28 106.09 777.72 34.47 787.53 -24.27 785.09 -63.6 773.39 -84.78 746.89 -82.7 705.75 -60.92 659.72 -23.19 606.2 26.29 552.53 81.22 512.24 142.04 487.55 201.41 486.79 255.69 515.57 310.25 572.29 357.86 652.26 397.44 744.69 436.61 836.76 468.26 911.95 491.73Q911.98 491.74 911.98 491.74" opacity="0.64"></path><path d="M877.69 359.15C920.31 380.28 930.73 392.55 909.89 396.76 862.74 401.3 795.28 398.6 717.42 390.39 635.81 384.55 559.8 376.27 495.51 368.95 444.49 369.13 409.61 375.84 389.38 393.01 382.94 423.29 386.01 467.69 394.06 526.53 408.91 595.67 422.87 673.31 432.67 752.74 444.12 824.93 448.78 883.59 445.29 919.87 441.88 929.52 429.93 908.7 408.8 858 387.68 786.65 358.38 704.18 321.95 622.35 285.61 549.87 242.51 494.49 194.46 460.09 148.05 448.36 99.3 456.51 51.88 479.48 11.28 516.56 -22.11 558.1 -43.36 598.14 -50.81 639.25 -40.98 672.02 -11.96 694.54 30.32 712.48 87.39 719.91 153.52 718.18 215.89 712.79 271.33 700.91 310.32 684.58 323.02 667.11 308.31 647.31 265.69 626.19 198.91 605.06 121.54 583.61 45.47 561.24 -23.74 537.73 -73.33 511.18 -98.71 479.97 -101.14 445.09 -79.05 402.88 -37.61 352.38 19.25 297.3 85.01 234.2 152.96 165.41 222.77 97.68 287.34 31.09 344.01 -27.98 396.25 -72.95 440.01 -100.05 476.14 -103.81 508.53 -84.9 535.95 -41.55 560 22.76 582.89 96.43 604.59 174.61 625.72 245.97 646.84 296.68 666.38 321.8 683.34 320.31 699.12 292.19 710.14 245.55 714.35 188.85 714.84 124.9 705.87 66.21 686.18 19.06 662.07 -17.78 627.83 -37.13 585.71 -39.73 545.45 -29.22 504.73 -5.6 469.86 26.77 450.42 66.65 447.28 109.72 465.19 152.17 506.06 196.99 567.67 238.12 645.04 273.42 729.26 309.05 810.91 338.03 877.69 359.15Q877.69 359.15 877.69 359.15" opacity="0.50"></path><path d="M843.97 240.82C883.14 259.6 896.82 272.62 885.37 280.72 852.22 289.53 800.56 294.84 737.19 298.48 666.56 305.15 595.71 313.16 530.13 325.12 470.89 343.74 422.27 369.9 384.88 405.48 357.47 449.73 339.54 504.05 328.53 567.03 324.32 633.77 322.9 703.07 321.47 769.25 322 847.23 302.91 881.81 278.18 824.08 259.41 761.39 234.64 688.94 205.09 615.27 176.12 546.5 143.61 488.8 109.72 445.98 78.61 419.71 49.1 409.67 24.37 413.34 6.44 430.61 -2.58 455.4 0.22 483.19 12.99 516.06 39.35 546.06 79.04 570.48 125.06 594.35 179.08 610.62 235.94 618.89 306.03 625.18 347.88 602.79 299.97 577.27 241.63 558.49 174.31 535.32 106.5 507.89 41.38 479.8 -10.65 446.29 -45.35 407.13 -63.73 366.33 -62.25 319.14 -43.38 266.32 -10.04 212.97 34.67 156 85.79 98.53 142.77 46.12 199.93 -0.93 253.9 -37.75 307.69 -60.97 355.96 -67.76 397.77 -55.26 438.01 -26.2 472.39 20.79 501.09 82.32 529.14 148.74 552.63 217.39 571.4 280.08 596.78 339.71 617.34 326.87 609.53 267.99 600.27 215.58 582.93 163.12 558.08 115.93 533.04 72.5 502.85 40.45 470.48 20.8 432.73 10.24 416.07 49.39 455.87 86.72 504.33 115.62 567.06 144.47 639.42 171.08 714.47 198.39 785.6 222.04 843.94 240.81Q843.97 240.82 843.97 240.82" opacity="0.30"></path><path d="M809.94 177.39C863.23 210.25 837.23 237.89 752.61 267.57 634.25 307.26 514.41 365.74 418.06 450.58 343.65 552.01 296.72 670.53 266.08 779.26 245.88 848.9 223.51 857.35 190.65 790.07 157.79 673.63 117.55 544.7 80.8 442.74 54.49 383.92 50.14 371.02 81.48 387.22 134.76 428.96 219.75 467.2 314.01 486.17 374.55 505.42 387.23 499.86 333.94 466.99 223.13 434.13 104.54 377.09 18.68 300.88 -26.18 224.97 -12.73 135.45 41.18 50.64 122.94 -8.63 211.76 -30.58 288.06 4.14 365.24 82.02 423.05 197.63 455.91 314.07 488.77 381.35 493.58 386.22 473.34 340.67 453.99 256.02 416.45 172.36 377.77 113.99 366.91 72.23 388.32 65.03 457.27 82.29 567.22 109.55 699.13 144.53 809.94 177.39Q809.94 177.39 809.94 177.39" opacity="0.68"></path><path d="M775.98 190.83C826.09 219 817 255.7 760.58 302.94 671.89 355.95 570.8 427.61 478.48 516.3 393.23 607.89 327.37 703.18 279.77 780.7 238.94 823.42 206.14 817.82 177.98 756.11 149.81 658 128.94 546.41 120.96 449.01 119.74 376.7 141.65 336.8 189.98 322.99 245.39 332.19 316.6 347.53 384.65 355.33 420.42 367.19 418.09 361.73 367.98 333.56 275.26 305.39 173.97 257.19 91.77 196.52 32.05 139.9 14.12 80.61 31.14 34.5 72.34 11.38 128.82 21.4 184.17 73.06 244.14 149.8 292.19 249.97 320.36 348.08 348.53 409.81 354.16 426.83 343 404.77 336.46 347.89 323.93 282.48 319.64 227.8 339.54 176.02 387.33 148.33 467.69 144.12 570.52 145.69 683.23 162.66 775.95 190.82Q775.98 190.83 775.98 190.83" opacity="0.78"></path><path d="M741.98 276.5C787.38 299.97 790.93 338.64 758.97 390.29 700.62 443.65 626.09 511.29 550.84 586.93 473.3 657.74 406.2 724.37 354.32 771.79 305.07 792.12 268.1 776.83 244.63 722.11 221.16 641.95 213.4 549.42 221.98 462.72 233.18 387.84 263.65 332.8 310.43 297.56 354.91 278.43 404.54 269.11 445.69 261.07 460.45 257.69 447.38 246.57 401.98 223.1 326.79 199.63 244.1 166.03 171.52 128.73 90.11 82.44 79.9 76.69 121.91 149.42 157.19 218.91 189.84 301.92 213.31 382.08 242.83 449.22 271.23 407.43 302.28 346.52 343.07 301.64 404.37 270.63 484.78 257.94 574.56 246.97 666.76 253.02 741.95 276.49Q741.98 276.5 741.98 276.5" opacity="0.27"></path><path d="M707.84 404.77C747.08 423.55 758.82 456.57 746.16 499.93 714.99 542.61 668.96 593.47 617.81 645.81 560.8 691.19 507.16 729.37 463.16 751.29 419.02 754.92 385.8 734.39 367.03 688.06 348.25 625.36 345.68 552.77 357.29 481.4 368.74 413.57 393.07 355.86 425.47 311.09 452.02 274.91 478.12 248 495.53 227.17 494.43 209.63 475.08 192.46 435.84 173.69 377.47 154.91 313.79 136.3 255.06 121.3 197.98 109.58 156.19 107.19 132.02 118.76 116.12 138.92 114.93 176.71 124.22 230.77 136.86 288.38 154.22 353.36 173 416.06 191.77 462.39 210.2 490.53 230.1 500.67 253.35 492.51 283.84 474.25 324.36 453.48 373.13 425.75 434.84 404.19 505.69 394.06 578.18 383.24 649.47 386 707.84 404.77Q707.84 404.77 707.84 404.77" opacity="0.91"></path><path d="M673.98 531.48C724.09 559.64 710.68 619.33 662.39 678.56 593.62 716.33 529.04 715.82 500.87 654.11 472.7 555.99 486.29 443.87 518.14 357.16 529.51 282.39 520.09 230.68 469.98 202.51 377.25 174.34 287.04 175.06 233.58 212.91 190.28 262.71 185.64 351.99 213.81 450.11 241.98 511.82 297.62 535.16 377.84 534.31 468.2 512 581.25 503.31 673.98 531.48Q673.98 531.48 673.98 531.48" opacity="0.83"></path><path d="M639.95 612.71C694.81 650.27 636.43 691.41 598.88 620.1 561.32 485.09 558.81 337.05 503.95 299.49 374.63 261.94 283.58 349.09 321.14 484.1 358.69 555.41 510.63 575.16 639.95 612.71Q639.95 612.71 639.95 612.71" opacity="0.64"></path></g></svg>